<svg version="1.1" xmlns="http://www.w3.org/2000/svg" viewBox="0 0 813.5604248046875 299.65625" width="1627.120849609375" height="599.3125">
  <!-- svg-source:excalidraw -->
  
  <defs>
    <style class="style-fonts">
      @font-face {
        font-family: "Virgil";
        src: url("https://excalidraw.com/Virgil.woff2");
      }
      @font-face {
        font-family: "Cascadia";
        src: url("https://excalidraw.com/Cascadia.woff2");
      }
      @font-face {
        font-family: "Assistant";
        src: url("https://excalidraw.com/Assistant-Regular.woff2");
      }
    </style>
    
  </defs>
  <rect x="0" y="0" width="813.5604248046875" height="299.65625" fill="#ffffff"></rect><g stroke-linecap="round" transform="translate(208.65234375 91.74609375) rotate(0 69.6171875 22.82421875)"><path d="M11.41 0 C57.47 2.1, 99.67 4.51, 127.82 0 C137.94 0.47, 138.84 0.56, 139.23 11.41 C138.86 20.79, 142.97 21.92, 139.23 34.24 C137.53 42, 135.7 48.63, 127.82 45.65 C89.53 47.45, 53.83 41.79, 11.41 45.65 C4.04 47.57, -1.25 42.69, 0 34.24 C-2.71 28.43, -2.15 25.96, 0 11.41 C0.51 4.52, 1.66 3, 11.41 0" stroke="none" stroke-width="0" fill="#a5d8ff"></path><path d="M11.41 0 C42.72 0.1, 74.27 1.02, 127.82 0 M11.41 0 C36.99 0.62, 61.62 0.69, 127.82 0 M127.82 0 C135.83 -1.9, 139.17 4.9, 139.23 11.41 M127.82 0 C135 0.47, 140.27 3.45, 139.23 11.41 M139.23 11.41 C137.56 17.77, 137.36 24.65, 139.23 34.24 M139.23 11.41 C139.99 18.05, 140.05 22.95, 139.23 34.24 M139.23 34.24 C138.17 42.39, 135.51 43.84, 127.82 45.65 M139.23 34.24 C140.7 42.3, 137.61 43.54, 127.82 45.65 M127.82 45.65 C83.68 44.61, 36.03 47.76, 11.41 45.65 M127.82 45.65 C84.89 44.99, 39.93 45.25, 11.41 45.65 M11.41 45.65 C4.67 45.53, 0.84 39.88, 0 34.24 M11.41 45.65 C2.26 43.59, -1.21 42.33, 0 34.24 M0 34.24 C1.46 29, 1.86 23.85, 0 11.41 M0 34.24 C-0.58 27.25, -0.51 20.52, 0 11.41 M0 11.41 C-1.53 4.79, 3.33 1.51, 11.41 0 M0 11.41 C0.66 2.95, 4.69 -1.18, 11.41 0" stroke="#1e1e1e" stroke-width="2" fill="none"></path></g><g transform="translate(268.6795349121094 102.0703125) rotate(0 9.589996337890625 12.5)"><text x="9.589996337890625" y="0" font-family="Virgil, Segoe UI Emoji" font-size="20px" fill="#1e1e1e" text-anchor="middle" style="white-space: pre;" direction="ltr" dominant-baseline="text-before-edge">10</text></g><g transform="translate(141.77734375 10) rotate(0 139.04989624023438 25)"><text x="0" y="0" font-family="Virgil, Segoe UI Emoji" font-size="20px" fill="#1e1e1e" text-anchor="start" style="white-space: pre;" direction="ltr" dominant-baseline="text-before-edge">a value cell contains values</text><text x="0" y="25" font-family="Virgil, Segoe UI Emoji" font-size="20px" fill="#1e1e1e" text-anchor="start" style="white-space: pre;" direction="ltr" dominant-baseline="text-before-edge">that can be updated</text></g><g stroke-linecap="round" transform="translate(210.77734375 192.4296875) rotate(0 69.6171875 22.82421875)"><path d="M11.41 0 C52.73 0.37, 88.56 -1.25, 127.82 0 C133.83 -0.05, 140.29 6.97, 139.23 11.41 C135.71 14.47, 137.47 25.38, 139.23 34.24 C141.56 41.12, 133.68 48.02, 127.82 45.65 C102.68 44.3, 83.03 42.77, 11.41 45.65 C1.95 43.45, -3.43 43.41, 0 34.24 C-2 30.28, -0.27 25.98, 0 11.41 C1.03 2.14, 3.32 -1.32, 11.41 0" stroke="none" stroke-width="0" fill="#a5d8ff"></path><path d="M11.41 0 C38.83 0.87, 63.23 -0.1, 127.82 0 M11.41 0 C54.74 0.43, 98.36 -0.06, 127.82 0 M127.82 0 C133.86 1.28, 139.63 5.12, 139.23 11.41 M127.82 0 C133.6 1.33, 137.95 1.54, 139.23 11.41 M139.23 11.41 C140.29 19.34, 138.28 26.67, 139.23 34.24 M139.23 11.41 C138.44 19.27, 138.87 26.84, 139.23 34.24 M139.23 34.24 C139.95 43.8, 136.36 44.88, 127.82 45.65 M139.23 34.24 C140.07 42.65, 134.43 44.88, 127.82 45.65 M127.82 45.65 C93.12 47.78, 56.5 46.64, 11.41 45.65 M127.82 45.65 C83.36 46.72, 36.63 46.33, 11.41 45.65 M11.41 45.65 C5.28 46.87, 1.91 42.71, 0 34.24 M11.41 45.65 C2.38 44.02, -1.64 40.87, 0 34.24 M0 34.24 C1.48 29.02, 1.69 21.98, 0 11.41 M0 34.24 C0.45 26.42, 0.46 18.17, 0 11.41 M0 11.41 C1.73 3.93, 1.86 1.17, 11.41 0 M0 11.41 C-0.91 1.92, 4.05 -1.91, 11.41 0" stroke="#1e1e1e" stroke-width="2" fill="none"></path></g><g transform="translate(266.39453887939453 202.75390625) rotate(0 13.999992370605469 12.5)"><text x="13.999992370605469" y="0" font-family="Virgil, Segoe UI Emoji" font-size="20px" fill="#1e1e1e" text-anchor="middle" style="white-space: pre;" direction="ltr" dominant-baseline="text-before-edge">20</text></g><g stroke-linecap="round" transform="translate(481.69140625 96.1953125) rotate(0 80.162109375 24.658203125)"><path d="M12.33 0 C66.4 1.44, 113.63 0.29, 148 0 C156.34 -3.26, 162.32 7.5, 160.32 12.33 C162.1 14.25, 158.09 21.87, 160.32 36.99 C157.07 46.39, 157.37 49.41, 148 49.32 C113.03 44.88, 78.76 49.34, 12.33 49.32 C4.74 52.52, -0.34 44.91, 0 36.99 C-1.83 27.15, -0.52 27.43, 0 12.33 C-0.22 6.73, 2.35 0.62, 12.33 0" stroke="none" stroke-width="0" fill="#ffec99"></path><path d="M12.33 0 C41.3 -0.02, 68.54 -0.99, 148 0 M12.33 0 C41.45 0.62, 71.55 -1.18, 148 0 M148 0 C154.37 1.87, 161.6 5.66, 160.32 12.33 M148 0 C155.59 1.74, 162.46 5.98, 160.32 12.33 M160.32 12.33 C161.06 22.61, 162.09 29.65, 160.32 36.99 M160.32 12.33 C160.1 21.47, 160.71 32.06, 160.32 36.99 M160.32 36.99 C159.86 43.27, 155.77 51.29, 148 49.32 M160.32 36.99 C161.27 46.3, 154.35 49.48, 148 49.32 M148 49.32 C114.28 50.01, 83.9 48.29, 12.33 49.32 M148 49.32 C111.64 49.31, 75.42 50.05, 12.33 49.32 M12.33 49.32 C5.92 51, 0.61 44.36, 0 36.99 M12.33 49.32 C3.81 50.8, 0.18 44.61, 0 36.99 M0 36.99 C-1.26 26.95, -1.16 21.09, 0 12.33 M0 36.99 C0.2 29.63, 0.5 21.09, 0 12.33 M0 12.33 C0.11 2.42, 2.74 -0.5, 12.33 0 M0 12.33 C0.12 1.96, 5.82 -1.44, 12.33 0" stroke="#1e1e1e" stroke-width="2" fill="none"></path></g><g transform="translate(548.1635208129883 108.353515625) rotate(0 13.689994812011719 12.5)"><text x="13.689994812011719" y="0" font-family="Virgil, Segoe UI Emoji" font-size="20px" fill="#1e1e1e" text-anchor="middle" style="white-space: pre;" direction="ltr" dominant-baseline="text-before-edge">30</text></g><g stroke-linecap="round"><g transform="translate(354.90625 109.99909726864394) rotate(0 62.494140625 7.436581599540773)"><path d="M-0.51 0.1 C20.4 2.74, 103.69 12.65, 124.71 14.96 M1.42 -0.9 C22.21 2.03, 103 13.93, 123.62 16.55" stroke="#1e1e1e" stroke-width="2" fill="none"></path></g><g transform="translate(354.90625 109.99909726864394) rotate(0 62.494140625 7.436581599540773)"><path d="M99.17 21.79 C105.17 20.19, 110.96 20.4, 123.62 16.55 M99.17 21.79 C103.88 19.86, 109.65 20.3, 123.62 16.55" stroke="#1e1e1e" stroke-width="2" fill="none"></path></g><g transform="translate(354.90625 109.99909726864394) rotate(0 62.494140625 7.436581599540773)"><path d="M101.52 4.85 C106.84 7.26, 112.07 11.49, 123.62 16.55 M101.52 4.85 C105.72 6.73, 110.96 10.99, 123.62 16.55" stroke="#1e1e1e" stroke-width="2" fill="none"></path></g></g><mask></mask><g stroke-linecap="round"><g transform="translate(357.06640625 205.2807651173755) rotate(0 65.75090846988724 -27.564210683687747)"><path d="M0.37 -0.45 C21.89 -9.86, 108.27 -47.03, 130.31 -56.06 M-0.9 -1.73 C20.86 -11.05, 110.18 -45.85, 132.39 -55.01" stroke="#1e1e1e" stroke-width="2" fill="none"></path></g><g transform="translate(357.06640625 205.2807651173755) rotate(0 65.75090846988724 -27.564210683687747)"><path d="M113.75 -38.35 C120.39 -47.05, 127.03 -49.93, 132.39 -55.01 M113.75 -38.35 C119.97 -43.52, 127.32 -50.1, 132.39 -55.01" stroke="#1e1e1e" stroke-width="2" fill="none"></path></g><g transform="translate(357.06640625 205.2807651173755) rotate(0 65.75090846988724 -27.564210683687747)"><path d="M107.4 -54.23 C116.62 -56.61, 125.79 -53.16, 132.39 -55.01 M107.4 -54.23 C115.82 -54.02, 125.35 -55.16, 132.39 -55.01" stroke="#1e1e1e" stroke-width="2" fill="none"></path></g></g><mask></mask><g transform="translate(480.3407287597656 214.65625) rotate(0 161.60984802246094 37.5)"><text x="0" y="0" font-family="Virgil, Segoe UI Emoji" font-size="20px" fill="#1e1e1e" text-anchor="start" style="white-space: pre;" direction="ltr" dominant-baseline="text-before-edge">a map cell contains a formula</text><text x="0" y="25" font-family="Virgil, Segoe UI Emoji" font-size="20px" fill="#1e1e1e" text-anchor="start" style="white-space: pre;" direction="ltr" dominant-baseline="text-before-edge">which is recomputed any time the</text><text x="0" y="50" font-family="Virgil, Segoe UI Emoji" font-size="20px" fill="#1e1e1e" text-anchor="start" style="white-space: pre;" direction="ltr" dominant-baseline="text-before-edge">original values change</text></g><g transform="translate(502.18359375 152.45703125) rotate(0 60.869972229003906 12.5)"><text x="0" y="0" font-family="Virgil, Segoe UI Emoji" font-size="20px" fill="#1e1e1e" text-anchor="start" style="white-space: pre;" direction="ltr" dominant-baseline="text-before-edge">(a,b) =&gt; a+b</text></g><g transform="translate(268.6015625 144.02734375) rotate(0 9.589996337890625 12.5)"><text x="0" y="0" font-family="Virgil, Segoe UI Emoji" font-size="20px" fill="#1e1e1e" text-anchor="start" style="white-space: pre;" direction="ltr" dominant-baseline="text-before-edge">10</text></g><g transform="translate(266.0896911621094 250.046875) rotate(0 13.999992370605469 12.5)"><text x="0" y="0" font-family="Virgil, Segoe UI Emoji" font-size="20px" fill="#1e1e1e" text-anchor="start" style="white-space: pre;" direction="ltr" dominant-baseline="text-before-edge">20</text></g><g stroke-linecap="round" transform="translate(10 118.46875) rotate(0 45.185546875 35)"><path d="M57.5 9 C63.91 13.88, 67.11 13.96, 78.87 27 C92.35 39.05, 87.28 37.54, 78.87 45 C71.21 52.8, 65.55 56.79, 57.5 61 C45.55 72.15, 49.5 69.35, 34.5 61 C23.44 56.11, 17.84 52.2, 11.5 45 C0.45 34.91, 1.18 37.2, 11.5 27 C13.16 20.94, 22.52 17.11, 34.5 9 C47.95 2.67, 48.17 -1.92, 57.5 9" stroke="none" stroke-width="0" fill="#b2f2bb"></path><path d="M57.5 9 C63.63 13.99, 71.44 22.3, 78.87 27 M57.5 9 C62.9 13.49, 68.62 17.26, 78.87 27 M78.87 27 C89.85 34.05, 88.45 35.87, 78.87 45 M78.87 27 C88.52 36.36, 90.61 36.03, 78.87 45 M78.87 45 C72.16 49.66, 69.37 52.59, 57.5 61 M78.87 45 C71.56 50.54, 65.48 55.21, 57.5 61 M57.5 61 C45.51 69.75, 46.11 68.97, 34.5 61 M57.5 61 C44.75 69.06, 47.67 71.88, 34.5 61 M34.5 61 C25.82 54.31, 18.76 48.54, 11.5 45 M34.5 61 C26.84 56.21, 21.43 51.12, 11.5 45 M11.5 45 C1.88 34.73, -1.06 34.3, 11.5 27 M11.5 45 C0.41 36.4, 0.4 34.62, 11.5 27 M11.5 27 C17.68 21.76, 24.8 18.08, 34.5 9 M11.5 27 C17.55 22.6, 22.76 18.8, 34.5 9 M34.5 9 C47.63 1.47, 45.41 0.13, 57.5 9 M34.5 9 C45.65 0.64, 44.02 -0.65, 57.5 9" stroke="#1e1e1e" stroke-width="2" fill="none"></path></g><g transform="translate(38.54279327392578 140.96875) rotate(0 16.54998016357422 12.5)"><text x="16.54998016357422" y="0" font-family="Virgil, Segoe UI Emoji" font-size="20px" fill="#1e1e1e" text-anchor="middle" style="white-space: pre;" direction="ltr" dominant-baseline="text-before-edge">set</text></g><g stroke-linecap="round"><g transform="translate(106.6015625 155.4609375) rotate(0 76.46875 0.09765625)"><path d="M0.01 0.96 C25.23 0.99, 126.85 1.48, 152.39 1.34 M-1.44 0.42 C23.48 0.65, 125.47 -0.35, 151.16 -0.18" stroke="#1e1e1e" stroke-width="2" fill="none"></path></g><g transform="translate(106.6015625 155.4609375) rotate(0 76.46875 0.09765625)"><path d="M127.69 8.43 C138.31 4.18, 147.73 2.36, 151.16 -0.18 M127.69 8.43 C133.69 6.33, 141.25 3.82, 151.16 -0.18" stroke="#1e1e1e" stroke-width="2" fill="none"></path></g><g transform="translate(106.6015625 155.4609375) rotate(0 76.46875 0.09765625)"><path d="M127.65 -8.67 C138.45 -6.28, 147.88 -1.48, 151.16 -0.18 M127.65 -8.67 C133.68 -5.68, 141.25 -3.1, 151.16 -0.18" stroke="#1e1e1e" stroke-width="2" fill="none"></path></g></g><mask></mask></svg>